<svg xmlns="http://www.w3.org/2000/svg" viewBox="0 0 244 244" width="244" height="244" role="img"><title>3 by 3 grid with the last tile missing. Row 1: 1 medium solid circle; 2 medium solid squares; 3 medium solid triangles. Row 2: 1 medium solid square; 2 medium solid triangles; 3 medium solid circles. Row 3: 1 medium solid triangle; 2 medium solid circles; missing.</title><defs><pattern id="hatch" width="6" height="6" patternUnits="userSpaceOnUse" patternTransform="rotate(45)"><rect width="6" height="6" fill="#fff"/><rect width="2.6" height="6" fill="#0d5a3b"/></pattern></defs><rect x="1" y="1" width="74" height="74" rx="10" fill="#fff" stroke="#ede0d5" stroke-width="2"/><g transform="translate(0 0)"><circle cx="38" cy="38" r="10.5" fill="#0d5a3b"/></g><rect x="85" y="1" width="74" height="74" rx="10" fill="#fff" stroke="#ede0d5" stroke-width="2"/><g transform="translate(84 0)"><rect x="15.76" y="15.76" width="18.48" height="18.48" fill="#0d5a3b"/><rect x="41.76" y="41.76" width="18.48" height="18.48" fill="#0d5a3b"/></g><rect x="169" y="1" width="74" height="74" rx="10" fill="#fff" stroke="#ede0d5" stroke-width="2"/><g transform="translate(168 0)"><polygon points="38.0,10.8 48.2,28.5 27.8,28.5" fill="#0d5a3b"/><polygon points="21.0,42.8 31.2,60.5 10.8,60.5" fill="#0d5a3b"/><polygon points="55.0,42.8 65.2,60.5 44.8,60.5" fill="#0d5a3b"/></g><rect x="1" y="85" width="74" height="74" rx="10" fill="#fff" stroke="#ede0d5" stroke-width="2"/><g transform="translate(0 84)"><rect x="28.759999999999998" y="28.759999999999998" width="18.48" height="18.48" fill="#0d5a3b"/></g><rect x="85" y="85" width="74" height="74" rx="10" fill="#fff" stroke="#ede0d5" stroke-width="2"/><g transform="translate(84 84)"><polygon points="25.0,14.8 35.2,32.5 14.8,32.5" fill="#0d5a3b"/><polygon points="51.0,40.8 61.2,58.5 40.8,58.5" fill="#0d5a3b"/></g><rect x="169" y="85" width="74" height="74" rx="10" fill="#fff" stroke="#ede0d5" stroke-width="2"/><g transform="translate(168 84)"><circle cx="38" cy="21" r="10.5" fill="#0d5a3b"/><circle cx="21" cy="53" r="10.5" fill="#0d5a3b"/><circle cx="55" cy="53" r="10.5" fill="#0d5a3b"/></g><rect x="1" y="169" width="74" height="74" rx="10" fill="#fff" stroke="#ede0d5" stroke-width="2"/><g transform="translate(0 168)"><polygon points="38.0,27.8 48.2,45.5 27.8,45.5" fill="#0d5a3b"/></g><rect x="85" y="169" width="74" height="74" rx="10" fill="#fff" stroke="#ede0d5" stroke-width="2"/><g transform="translate(84 168)"><circle cx="25" cy="25" r="10.5" fill="#0d5a3b"/><circle cx="51" cy="51" r="10.5" fill="#0d5a3b"/></g><rect x="169" y="169" width="74" height="74" rx="10" fill="#fbf4ef" stroke="#8a7a6d" stroke-width="2" stroke-dasharray="6 5"/><text x="206" y="218" font-family="Segoe UI, system-ui, sans-serif" font-size="32" font-weight="700" text-anchor="middle" fill="#8a7a6d">?</text></svg>